<svg xmlns="http://www.w3.org/2000/svg" xmlns:xlink="http://www.w3.org/1999/xlink" viewBox="0 0 338.6 576.02"><defs><style>.cls-1{fill:url(#linear-gradient);}</style><linearGradient id="linear-gradient" x1="169.3" y1="576.02" x2="169.3" gradientUnits="userSpaceOnUse"><stop offset="0.14" stop-color="#7ad1f6"/><stop offset="0.17" stop-color="#76cef4"/><stop offset="0.37" stop-color="#5bb7e6"/><stop offset="0.58" stop-color="#47a6dc"/><stop offset="0.79" stop-color="#3b9cd6"/><stop offset="1" stop-color="#3799d4"/></linearGradient></defs><g id="Layer_2" data-name="Layer 2"><g id="Layer_1-2" data-name="Layer 1"><path class="cls-1" d="M110.25,194.27a128.77,128.77,0,0,1,6.83,140.87l-43.38,74C30.39,483,83.67,576,169.31,576h0c85.63,0,138.91-93,95.61-166.86l-43.39-74a128.77,128.77,0,0,1,6.83-140.86c27-37.1,58.72-68.3,92.61-94.53,28.48-22,21.24-66.65-13-77.8a449.26,449.26,0,0,0-277.36,0c-34.23,11.16-41.47,55.77-13,77.8C51.54,126,83.23,157.18,110.25,194.27Z"/></g></g></svg>