<svg id="Layer_1" data-name="Layer 1" xmlns="http://www.w3.org/2000/svg" xmlns:xlink="http://www.w3.org/1999/xlink" viewBox="0 0 722.26 409.79"><defs><style>.cls-1{fill:url(#linear-gradient);}.cls-2{font-size:201.81px;}.cls-2,.cls-3{fill:#29aae1;font-family:Poppins-ExtraBold, Poppins;font-weight:800;}.cls-3{font-size:156.2px;}.cls-4{font-size:53.7px;fill:#7ad1f6;font-family:Poppins-Light, Poppins;font-weight:300;}</style><linearGradient id="linear-gradient" x1="31.12" y1="473.9" x2="31.12" y2="289.42" gradientUnits="userSpaceOnUse"><stop offset="0.14" stop-color="#7ad1f6"/><stop offset="0.17" stop-color="#76cef4"/><stop offset="0.37" stop-color="#5bb7e6"/><stop offset="0.58" stop-color="#47a6dc"/><stop offset="0.79" stop-color="#3b9cd6"/><stop offset="1" stop-color="#3799d4"/></linearGradient></defs><path class="cls-1" d="M12.21,351.64a41.24,41.24,0,0,1,2.18,45.11L.5,420.46c-13.87,23.66,3.19,53.44,30.62,53.44h0c27.42,0,44.49-29.78,30.62-53.44l-13.9-23.71A41.26,41.26,0,0,1,50,351.64a150.18,150.18,0,0,1,29.66-30.28,14.26,14.26,0,0,0-4.16-24.92,144,144,0,0,0-88.83,0,14.26,14.26,0,0,0-4.16,24.92A150.48,150.48,0,0,1,12.21,351.64Z" transform="translate(50.47 -94.94)"/><text class="cls-2" transform="translate(0 172.45)">SMART</text><text class="cls-3" transform="translate(153.09 313.58)">WATER</text><text class="cls-4" transform="translate(157.3 373.49)">MANAGEMENT SYSTEM</text></svg>